HIERARCHY
ROOT joint_Root
{
	OFFSET 0.0 0.0 0.0
	CHANNELS 6 Xposition Yposition Zposition Zrotation Xrotation Yrotation 
	JOINT Hips
	{
		OFFSET 4.5925 91.4895 -427.239
		CHANNELS 6 Xposition Yposition Zposition Zrotation Xrotation Yrotation 
		JOINT Spine
		{
			OFFSET 15.7357 0.0 0.0
			CHANNELS 6 Xposition Yposition Zposition Zrotation Xrotation Yrotation 
			JOINT Chest
			{
				OFFSET 8.98455 -0.406207 0.0
				CHANNELS 6 Xposition Yposition Zposition Zrotation Xrotation Yrotation 
				JOINT Neck
				{
					OFFSET 16.3773 0.0 0.0
					CHANNELS 6 Xposition Yposition Zposition Zrotation Xrotation Yrotation 
					JOINT Head
					{
						OFFSET 6.45672 0.0 0.0
						CHANNELS 6 Xposition Yposition Zposition Zrotation Xrotation Yrotation 
						End Site
						{
							OFFSET 0.0 0.0 0.0
						}
					}
				}
				JOINT Shoulder_L
				{
					OFFSET 12.9942 -0.242716 4.98039
					CHANNELS 6 Xposition Yposition Zposition Zrotation Xrotation Yrotation 
					JOINT UpperArm_L
					{
						OFFSET 5.34809 0.0 0.0
						CHANNELS 6 Xposition Yposition Zposition Zrotation Xrotation Yrotation 
						JOINT LowerArm_L
						{
							OFFSET 24.3286 1.87007e-05 0.0
							CHANNELS 6 Xposition Yposition Zposition Zrotation Xrotation Yrotation 
							JOINT Hand_L
							{
								OFFSET 22.2916 0.0 0.0
								CHANNELS 6 Xposition Yposition Zposition Zrotation Xrotation Yrotation 
								End Site
								{
									OFFSET 0.0 0.0 0.0
								}
							}
						}
					}
				}
				JOINT Shoulder_R
				{
					OFFSET 12.9945 -0.242716 -4.98039
					CHANNELS 6 Xposition Yposition Zposition Zrotation Xrotation Yrotation 
					JOINT UpperArm_R
					{
						OFFSET -5.34813 0.0 0.0
						CHANNELS 6 Xposition Yposition Zposition Zrotation Xrotation Yrotation 
						JOINT LowerArm_R
						{
							OFFSET -24.3289 0.000322201 0.0
							CHANNELS 6 Xposition Yposition Zposition Zrotation Xrotation Yrotation 
							JOINT Hand_R
							{
								OFFSET -22.2915 -0.000108084 0.0
								CHANNELS 6 Xposition Yposition Zposition Zrotation Xrotation Yrotation 
								End Site
								{
									OFFSET 0.0 0.0 0.0
								}
							}
						}
					}
				}
			}
		}
		JOINT UpperLeg_L
		{
			OFFSET -2.19248 -6.46944 0.0
			CHANNELS 6 Xposition Yposition Zposition Zrotation Xrotation Yrotation 
			JOINT LowerLeg_L
			{
				OFFSET 39.0811 0.0 -1.23785e-05
				CHANNELS 6 Xposition Yposition Zposition Zrotation Xrotation Yrotation 
				JOINT Foot_L
				{
					OFFSET 40.9854 0.0 -1.26872e-05
					CHANNELS 6 Xposition Yposition Zposition Zrotation Xrotation Yrotation 
					JOINT Toes_L
					{
						OFFSET 11.7543 0.0 0.0
						CHANNELS 6 Xposition Yposition Zposition Zrotation Xrotation Yrotation 
						End Site
						{
							OFFSET 0.0 0.0 0.0
						}
					}
				}
			}
		}
		JOINT UpperLeg_R
		{
			OFFSET -2.19251 6.46944 0.0
			CHANNELS 6 Xposition Yposition Zposition Zrotation Xrotation Yrotation 
			JOINT LowerLeg_R
			{
				OFFSET -39.0811 -0.00228153 -0.0401928
				CHANNELS 6 Xposition Yposition Zposition Zrotation Xrotation Yrotation 
				JOINT Foot_R
				{
					OFFSET -40.9854 0.0 0.0
					CHANNELS 6 Xposition Yposition Zposition Zrotation Xrotation Yrotation 
					JOINT Toes_R
					{
						OFFSET -11.7543 0.0 0.0
						CHANNELS 6 Xposition Yposition Zposition Zrotation Xrotation Yrotation 
						End Site
						{
							OFFSET 0.0 0.0 0.0
						}
					}
				}
			}
		}
	}
}
MOTION
Frames:	6
Frame Time:	0.0333333
0.000000 0.000000 0.000000 0.000000 0.000000 -0.000000 -0.344700 87.654200 502.087000 -90.637100 -2.738050 179.494000 15.735700 0.000005 -0.000001 69.239000 83.248300 -68.939000 8.984550 -0.406207 -0.000000 4.886720 -4.784800 0.803742 16.377300 -0.000001 -0.000001 -2.783490 -3.990210 0.600011 6.456720 -0.000001 -0.000000 -4.729790 -1.948210 2.146390 12.994200 -0.242716 4.980390 -90.250900 1.186990 -78.063300 5.348090 -0.000007 -0.000001 -61.263000 22.631100 -26.877400 24.328600 0.000019 0.000005 -1.372020 -0.480213 -70.644100 22.291600 -0.000001 0.000005 17.373100 5.522650 -7.459090 12.994500 -0.242716 -4.980390 88.687200 9.184830 -81.829300 -5.348130 -0.000001 -0.000004 -67.734500 22.125300 4.899350 -24.328900 0.000322 -0.000009 -23.263400 -7.659600 -72.777700 -22.291500 -0.000108 -0.000004 26.367400 5.648550 -14.878500 -2.192480 -6.469440 -0.000000 -175.624000 -5.105730 -10.324300 39.081100 -0.000007 -0.000012 0.077090 -0.042488 61.136000 40.985400 -0.000006 -0.000013 0.046688 0.780591 -52.412400 11.754300 -0.000000 0.000003 -0.028604 -0.211003 -25.217900 -2.192510 6.469440 -0.000001 -176.123000 18.316800 155.053000 -39.081100 -0.002282 -0.040193 -0.320086 0.317213 45.549200 -40.985400 0.000008 0.000006 4.681980 -4.424350 -72.737700 -11.754300 -0.000006 -0.000006 -0.013495 -0.128119 -21.798200
0.000000 0.000000 0.000000 0.000000 0.000000 -0.000000 -0.153854 86.298300 498.043000 -90.245300 -0.743032 -178.921000 15.735700 0.000005 -0.000001 77.750300 82.822800 -77.264100 8.984550 -0.406207 -0.000000 6.281420 -3.043160 1.138580 16.377300 -0.000001 -0.000001 -2.868040 -3.443300 0.638965 6.456720 -0.000001 -0.000000 -4.867140 -1.924710 1.628890 12.994200 -0.242716 4.980390 -90.541100 2.483030 -77.706600 5.348090 -0.000007 -0.000001 -60.973300 26.339300 -20.450100 24.328600 0.000019 0.000005 0.766369 0.397614 -62.740100 22.291600 -0.000001 0.000005 15.034000 5.518930 -7.315570 12.994500 -0.242716 -4.980390 88.680200 10.172800 -82.567100 -5.348130 -0.000001 -0.000004 -62.887800 20.565800 -6.243940 -24.328900 0.000322 -0.000009 -22.804500 -4.438460 -79.571700 -22.291500 -0.000108 -0.000004 27.051600 5.646590 -14.704600 -2.192480 -6.469440 -0.000000 -175.069000 -4.500000 -15.064500 39.081100 -0.000007 -0.000012 0.086142 -0.027783 72.120000 40.985400 -0.000006 -0.000013 0.533900 0.008923 -51.271500 11.754300 -0.000000 0.000003 -0.003960 -0.051028 -18.652500 -2.192510 6.469440 -0.000001 -176.628000 14.931100 157.562000 -39.081100 -0.002282 -0.040193 -0.341686 0.288791 50.063100 -40.985400 0.000008 0.000006 4.468090 -6.212460 -77.717100 -11.754300 -0.000006 -0.000006 -0.006889 -0.078711 -19.777300
0.000000 0.000000 0.000000 0.000000 0.000000 -0.000000 -0.059983 85.076400 494.698000 -89.898100 1.621370 -179.146000 15.735700 0.000005 -0.000001 83.990300 82.787700 -83.360000 8.984550 -0.406207 -0.000000 6.589640 -1.511980 1.346290 16.377300 -0.000001 -0.000001 -2.987510 -2.701280 0.907112 6.456720 -0.000001 -0.000000 -5.143950 -1.305150 1.019940 12.994200 -0.242716 4.980390 -90.882800 3.887990 -77.198800 5.348090 -0.000007 -0.000001 -62.203200 28.684200 -11.660600 24.328600 0.000019 0.000005 1.982770 1.341190 -55.938400 22.291600 -0.000001 0.000005 15.158700 5.524430 -7.551660 12.994500 -0.242716 -4.980390 88.687700 11.049000 -83.183500 -5.348130 -0.000001 -0.000004 -57.749200 18.211800 -20.461800 -24.328900 0.000322 -0.000009 -22.648000 -2.229230 -84.675100 -22.291500 -0.000108 -0.000004 28.814200 5.650430 -15.055700 -2.192480 -6.469440 -0.000000 -175.150000 -4.667710 -21.997000 39.081100 -0.000007 -0.000012 0.070048 -0.012133 80.167400 40.985400 -0.000006 -0.000013 2.315010 -1.995830 -55.993300 11.754300 -0.000000 0.000003 -0.004302 -0.054554 -18.796100 -2.192510 6.469440 -0.000001 -176.807000 13.575800 158.358000 -39.081100 -0.002282 -0.040193 -0.473570 0.355280 53.310000 -40.985400 0.000008 0.000006 3.746060 -5.558900 -81.806800 -11.754300 -0.000006 -0.000006 -0.004468 -0.056224 -18.860400
0.000000 0.000000 0.000000 0.000000 0.000000 -0.000000 0.063187 84.299500 491.249000 -89.392700 3.327010 -179.455000 15.735700 0.000005 -0.000001 88.130500 82.643400 -87.331300 8.984550 -0.406207 -0.000000 6.943480 -0.484111 1.626000 16.377300 -0.000001 -0.000001 -3.324070 -2.134710 1.205030 6.456720 -0.000001 -0.000000 -5.521810 -0.838572 0.473260 12.994200 -0.242716 4.980390 -91.163400 4.766450 -76.267200 5.348090 -0.000007 -0.000001 -64.680500 29.909600 -0.618332 24.328600 0.000019 0.000005 1.844170 1.337420 -54.062800 22.291600 -0.000001 0.000005 15.538400 5.511780 -7.015650 12.994500 -0.242716 -4.980390 88.853600 10.560000 -83.769000 -5.348130 -0.000001 -0.000004 -55.083500 14.983100 -34.592000 -24.328900 0.000322 -0.000009 -20.851800 -1.176120 -86.916200 -22.291500 -0.000108 -0.000004 29.234800 5.651210 -15.132000 -2.192480 -6.469440 -0.000000 -174.871000 -4.845510 -28.290800 39.081100 -0.000007 -0.000012 0.062677 -0.007281 83.366300 40.985400 -0.000006 -0.000013 3.704820 -2.236560 -59.526000 11.754300 -0.000000 0.000003 -0.003811 -0.049468 -18.588900 -2.192510 6.469440 -0.000001 -176.975000 13.467100 160.263000 -39.081100 -0.002282 -0.040193 -0.411380 0.295540 54.518700 -40.985400 0.000008 0.000006 3.881000 -4.267990 -85.057200 -11.754300 -0.000006 -0.000006 -0.002406 -0.033683 -17.942800
0.000000 0.000000 0.000000 0.000000 0.000000 -0.000000 0.025931 84.259800 487.547000 -89.279700 5.252290 179.877000 15.735700 0.000005 -0.000001 94.837700 82.635200 -94.167900 8.984550 -0.406207 -0.000000 6.905350 1.232980 1.263600 16.377300 -0.000001 -0.000001 -3.628390 -1.950620 1.610400 6.456720 -0.000001 -0.000000 -5.981940 -1.213210 0.298627 12.994200 -0.242716 4.980390 -91.148200 4.345640 -75.182600 5.348090 -0.000007 -0.000001 -68.257900 30.375300 10.253100 24.328600 0.000019 0.000005 -0.709844 -0.493485 -55.139300 22.291600 -0.000001 0.000005 15.001600 5.514040 -7.111940 12.994500 -0.242716 -4.980390 89.142500 9.031220 -84.553600 -5.348130 -0.000001 -0.000004 -55.079800 11.279100 -44.711500 -24.328900 0.000322 -0.000009 -18.316600 -0.624636 -88.114100 -22.291500 -0.000108 -0.000004 28.900100 5.657860 -15.816900 -2.192480 -6.469440 -0.000000 -175.125000 -5.688360 -33.061100 39.081100 -0.000007 -0.000012 0.075085 -0.012100 80.839500 40.985400 -0.000006 -0.000013 3.235250 -2.281580 -62.933500 11.754300 -0.000000 0.000003 -0.004404 -0.055588 -18.838200 -2.192510 6.469440 -0.000001 -177.807000 13.629400 163.229000 -39.081100 -0.002282 -0.040193 -0.159030 0.121881 53.089100 -40.985400 0.000008 0.000006 4.750770 -2.446460 -87.093300 -11.754300 -0.000006 -0.000006 -0.001426 -0.021283 -17.438600
0.000000 0.000000 0.000000 0.000000 0.000000 -0.000000 -0.171676 85.024000 483.359000 -89.891400 5.983790 179.193000 15.735700 0.000005 -0.000001 100.626000 82.716000 -100.393000 8.984550 -0.406207 -0.000000 6.552330 2.675590 0.311369 16.377300 -0.000001 -0.000001 -3.770930 -2.213820 1.983780 6.456720 -0.000001 -0.000000 -6.147680 -2.252030 0.360522 12.994200 -0.242716 4.980390 -90.758500 2.740310 -74.521500 5.348090 -0.000007 -0.000001 -72.326300 29.426000 19.353600 24.328600 0.000019 0.000005 -3.303860 -2.183870 -56.567000 22.291600 -0.000001 0.000005 14.760000 5.497730 -6.442280 12.994500 -0.242716 -4.980390 89.322100 7.131770 -84.555400 -5.348130 -0.000001 -0.000004 -55.810900 8.951980 -50.201500 -24.328900 0.000322 -0.000009 -16.927000 -0.424484 -88.604100 -22.291500 -0.000108 -0.000004 29.943500 5.661510 -16.216600 -2.192480 -6.469440 -0.000000 -176.535000 -5.832660 -35.697900 39.081100 -0.000007 -0.000012 0.060837 -0.018682 72.923400 40.985400 -0.000006 -0.000013 2.201320 -2.956620 -65.515100 11.754300 -0.000000 0.000003 -0.003858 -0.049965 -18.609200 -2.192510 6.469440 -0.000001 -179.644000 14.116500 167.876000 -39.081100 -0.002282 -0.040193 0.053624 -0.044319 48.657300 -40.985400 0.000008 0.000006 5.603450 -1.334990 -87.359600 -11.754300 -0.000006 -0.000006 -0.001833 -0.026601 -17.654800
